# AST/ASF file generated using VICON BodyLanguage
# -----------------------------------------------
:version 1.10
:name VICON
:units
  mass 1.0
  length 0.1
  angle deg
:documentation
   .ast/.asf automatically generated from VICON data using
   VICON BodyBuilder and BodyLanguage model FULLBODY5.MOD
:root
   order TX TY TZ RZ RY RX
   axis XYZ
   position 0 0 0  
   orientation 0 -0 0 
:bonedata
  begin
     id 1 
     name lhipjoint
     direction 0.969109 -0.218487 0.11442 
     length 0.544217 
     axis 0 -0 0  XYZ
  end
  begin
     id 2 
     name lfemur
     direction 0.173648 -0.984808 0  
     length 1.81499  
     axis 0 -0 10  XYZ
    dof rx ry rz
    limits (-180.0 180.0)
           (-180.0 180.0)
           (-180.0 180.0)
  end
  begin
     id 3 
     name ltibia
     direction 0.173515 -0.984831 0   
     length 1.55296   
     axis 0 -0 10   XYZ
    dof rx ry rz
    limits (-180.0 180.0)
           (-180.0 180.0)
           (-180.0 180.0)
  end
  begin
     id 4 
     name lfoot
     direction 7.36097e-012 -0.333012 0.942922   
     length 0.509062   
     axis -90 -1.73656e-015 10   XYZ
    dof rx ry rz
    limits (-180.0 180.0)
           (-180.0 180.0)
           (-180.0 180.0)
  end
  begin
     id 5 
     name ltoes
     direction 7.7847e-012 -4.42403e-011 1   
     length 0.249732   
     axis -90 -1.73656e-015 10   XYZ
    dof rx ry rz
    limits (-180.0 180.0)
           (-180.0 180.0)
           (-180.0 180.0)
  end
  begin
     id 6 
     name rhipjoint
     direction -0.966745 -0.226554 0.118645   
     length 0.524838  
     axis 0 -0 0  XYZ 
  end
  begin
     id 7 
     name rfemur
     direction -0.173648 -0.984808 0   
     length 1.84625   
     axis 0 -0 -10   XYZ
    dof rx ry rz
    limits (-180.0 180.0)
           (-180.0 180.0)
           (-180.0 180.0)
  end
  begin
     id 8 
     name rtibia
     direction -0.173714 -0.984796 0   
     length 1.577   
     axis 0 -0 -10   XYZ
    dof rx ry rz
    limits (-180.0 180.0)
           (-180.0 180.0)
           (-180.0 180.0)
 end
 begin
     id 9 
     name rfoot
     direction -0.0183819 -0.0406144 0.999006   
     length 0.490111  
     axis -90 1.73656e-015 -10   XYZ
    dof rx ry rz
    limits (-180.0 180.0)
           (-180.0 180.0)
           (-180.0 180.0)
  end
  begin
     id 10 
     name rtoes
     direction -7.79087e-012 -4.42375e-011 1   
     length 0.245053   
     axis -90 1.73656e-015 -10   XYZ
    dof rx ry rz
    limits (-180.0 180.0)
           (-180.0 180.0)
           (-180.0 180.0)
  end
  begin
     id 11 
     name lowerback
     direction -0.0664844 0.980601 0.184393   
     length 0.458979   
     axis 0 -0 0   XYZ
    dof rx ry rz
    limits (-180.0 180.0)
           (-180.0 180.0)
           (-180.0 180.0)
  end
  begin
     id 12 
     name upperback
     direction 0.0135995 0.999573 0.02588   
     length 0.463983   
     axis 0 -0 0   XYZ
    dof rx ry rz
    limits (-180.0 180.0)
           (-180.0 180.0)
           (-180.0 180.0)
  end
  begin
     id 13 
     name thorax
     direction 0.0468402 0.997311 -0.0563691   
     length 0.482746   
     axis 0 -0 0   XYZ
    dof rx ry rz
    limits (-180.0 180.0)
           (-180.0 180.0)
           (-180.0 180.0)
  end
  begin
     id 14 
     name lowerneck
     direction -0.00174311 0.988586 -0.150647   
     length 0.364383   
     axis 0 -0 0   XYZ
    dof rx ry rz
    limits (-180.0 180.0)
           (-180.0 180.0)
           (-180.0 180.0)
  end
  begin
     id 15 
     name upperneck
     direction -0.02653 0.999379 -0.0231908   
     length 0.361006   
     axis 0 -0 0   XYZ
    dof rx ry rz
    limits (-180.0 180.0)
           (-180.0 180.0)
           (-180.0 180.0)
  end
  begin
     id 16
     name head
     direction -0.00819207 0.999941 0.00714285  
     length 0.378714  
     axis 0 -0 0   XYZ
    dof rx ry rz
    limits (-180.0 180.0)
           (-180.0 180.0)
           (-180.0 180.0)
  end
  begin
     id 17 
     name lshoulderjoint
     direction 0.981627 -0.190809 0  
     length 0.612969  
     axis 0 -0 -11   XYZ
    dof rx ry rz
    limits (-180.0 180.0)
           (-180.0 180.0)
           (-180.0 180.0)
  end
  begin
     id 18 
     name lhumerus
     direction 0.48481 -0.87462 -9.72962e-027   
     length 1.19637   
     axis -180 5.14477e-009 -151   XYZ
    dof rx ry rz
    limits (-180.0 180.0)
           (-180.0 180.0)
           (-180.0 180.0)
  end
  begin
     id 19
     name lradius
     direction 0.48481 -0.87462 -2.35761e-026   
     length 0.637735   
     axis -180 5.14477e-009 -151   XYZ
    dof rx ry rz
    limits (-180.0 180.0)
           (-180.0 180.0)
           (-180.0 180.0)
  end
  begin
     id 20
     name lwrist
     direction 0.48481 -0.87462 -5.51856e-026   
     length 0.318868   
     axis -180 5.14477e-009 -151   XYZ
    dof rx ry rz
    limits (-180.0 180.0)
           (-180.0 180.0)
           (-180.0 180.0)
  end
  begin
     id 21 
     name lhand
     direction 0.477747 -0.861928 -0.169816   
     length 0.29526   
     axis -180 5.14477e-009 -151   XYZ
    dof rx ry rz
    limits (-180.0 180.0)
           (-180.0 180.0)
           (-180.0 180.0)
  end
  begin
     id 22 
     name rshoulderjoint
     direction -0.981627 -0.190809 0   
     length 0.572347  
     axis 0 -0 11   XYZ 
    dof rx ry rz
    limits (-180.0 180.0)
           (-180.0 180.0)
           (-180.0 180.0)
  end
  begin
     id 23 
     name rhumerus
     direction -0.48481 -0.87462 1.64836e-026  
     length 1.28846   
     axis 180 5.14477e-009 151   XYZ
    dof rx ry rz
    limits (-180.0 180.0)
           (-180.0 180.0)
           (-180.0 180.0)
  end
  begin
     id 24 
     name rradius
     direction -0.48481 -0.87462 2.86827e-026   
     length 0.62107   
     axis 180 5.14477e-009 151   XYZ
    dof rx ry rz
    limits (-180.0 180.0)
           (-180.0 180.0)
           (-180.0 180.0)
  end
  begin
     id 25 
     name rwrist
     direction -0.48481 -0.87462 5.20942e-026   
     length 0.310535   
     axis 180 5.14477e-009 151   XYZ
    dof rx ry rz
    limits (-180.0 180.0)
           (-180.0 180.0)
           (-180.0 180.0)
  end
  begin
     id 26
     name rhand
     direction -0.477664 -0.861515 -0.172133   
     length 0.291321   
     axis 180 5.14477e-009 151   XYZ
    dof rx ry rz
    limits (-180.0 180.0)
           (-180.0 180.0)
           (-180.0 180.0)
  end
:hierarchy
  begin
    root lhipjoint rhipjoint lowerback 
    lhipjoint lfemur
    lfemur ltibia
    ltibia lfoot
    lfoot ltoes
    rhipjoint rfemur
    rfemur rtibia
    rtibia rfoot
    rfoot rtoes
    lowerback upperback
    upperback thorax
    thorax lowerneck lshoulderjoint rshoulderjoint
    lowerneck upperneck
    upperneck head
    lshoulderjoint lhumerus
    lhumerus lradius
    lradius lwrist
    lwrist lhand
    rshoulderjoint rhumerus
    rhumerus rradius
    rradius rwrist
    rwrist rhand
  end

:FULLY-SPECIFIED
:DEGREES
1359
root -10.229 3.82677 -0.750934 93.2182 -68.6195 91.3431
lowerback -27.6858 -0.101117 -7.89067
upperback -7.82801 1.33172 -0.38777
thorax 6.28403 0.322147 4.49983
lowerneck 15.6681 -3.87437 2.15949
upperneck 7.58005 -5.16041 -3.42803
head -0.352348 -2.66079 -1.18463
rshoulderjoint -2.16429 7.02967 -28.1607
rhumerus 346.661 -11.8953 -411.402
rradius 22.5215 -9.54166e-015 7.39479e-014
rwrist -5.56787e-013 10.7282 2.49259e-013
rhand 12.8603 -9.39265 29.1876
lshoulderjoint -2.11423 -5.86555 30.8619
lhumerus 344.164 40.1925 406.074
lradius 15.3839 -8.5875e-014 9.74045e-015
lwrist -3.99716e-013 -13.4072 -2.28876e-014
lhand 13.9812 11.4305 -31.6792
rfemur -16.5178 6.36777 10.8949
rtibia 1.27222e-014 1.19271e-014 5.56597e-015
rfoot -178.883 -60.6617 175.134
rtoes 6.65929e-014 2.3961e-013 -1.35273e-013
lfemur -15.5873 -14.394 -11.394
ltibia 3.46956 -6.36111e-015 -1.07344e-014
lfoot -10.1031 5.54991 16.6112
ltoes -1.64196e-013 1.18457e-013 4.21423e-014
1360
root -10.2286 3.82673 -0.752686 92.9666 -68.6351 91.0878
lowerback -27.6153 -0.14027 -7.92486
upperback -7.81902 1.28734 -0.381876
thorax 6.26422 0.302652 4.51082
lowerneck 15.6561 -3.87105 2.15348
upperneck 7.59439 -5.15711 -3.43336
head -0.345652 -2.65948 -1.18585
rshoulderjoint -2.15892 7.00437 -28.1785
rhumerus 346.636 -11.8297 -411.422
rradius 22.5322 3.10104e-014 -3.18055e-014
rwrist -3.49519e-013 10.6488 -2.1845e-014
rhand 12.8572 -9.35568 29.1577
lshoulderjoint -2.11988 -5.86882 30.9006
lhumerus 344.458 39.749 406.399
lradius 15.5078 -1.46306e-013 5.9039e-014
lwrist -2.80996e-013 -13.2396 1.24161e-013
lhand 13.8752 11.3416 -31.7744
rfemur -16.4898 5.95857 11.0311
rtibia 4.13472e-014 1.43125e-014 1.03368e-014
rfoot -178.859 -60.8352 175.462
rtoes 2.24627e-014 1.88796e-013 -8.27938e-014
lfemur -15.5663 -14.5206 -11.3407
ltibia 3.40264 1.59028e-015 3.97569e-015
lfoot -10.0437 5.5669 16.6574
ltoes -1.41038e-013 5.51379e-014 6.95746e-014
1361
root -10.2284 3.82662 -0.754249 92.7317 -68.6252 90.8377
lowerback -27.5938 -0.171957 -7.95967
upperback -7.80127 1.25803 -0.385579
thorax 6.27641 0.288531 4.51731
lowerneck 15.6221 -3.87091 2.14084
upperneck 7.6068 -5.15886 -3.4222
head -0.335384 -2.6609 -1.18075
rshoulderjoint -2.14847 6.97177 -28.175
rhumerus 346.63 -11.822 -411.428
rradius 22.5352 -4.11484e-014 1.55847e-013
rwrist 2.29778e-013 10.6511 2.67805e-013
rhand 12.8312 -9.35165 29.1418
lshoulderjoint -2.12355 -5.87576 30.9109
lhumerus 344.76 39.4282 406.67
lradius 15.572 3.91208e-013 -1.34378e-013
lwrist 6.54081e-014 -13.4617 -4.52951e-013
lhand 13.607 11.5142 -31.8862
rfemur -16.4854 5.55197 11.1494
rtibia -3.65764e-014 5.56597e-015 6.36111e-015
rfoot -178.825 -61.0103 175.771
rtoes -9.12422e-014 4.4975e-015 1.57636e-013
lfemur -15.6117 -14.6492 -11.2983
ltibia 3.42922 -3.33958e-014 -7.95139e-016
lfoot -10.0437 5.57911 16.7037
ltoes 1.86162e-013 -4.35338e-014 -4.37326e-015
1362
root -10.2281 3.82653 -0.75591 92.5226 -68.62 90.6138
lowerback -27.5621 -0.21676 -8.00624
upperback -7.80027 1.20949 -0.361711
thorax 6.26589 0.266187 4.55484
lowerneck 15.6755 -3.8536 2.06965
upperneck 7.57695 -5.14725 -3.41192
head -0.350954 -2.65639 -1.1648
rshoulderjoint -2.16844 7.01772 -28.2191
rhumerus 346.568 -11.96 -411.433
rradius 22.5633 -2.08724e-014 -1.20066e-013
rwrist 5.40418e-013 10.625 -3.03378e-013
rhand 12.8551 -9.21502 29.113
lshoulderjoint -2.12509 -5.88881 30.8836
lhumerus 345.04 39.1481 406.932
lradius 15.6149 -3.18055e-014 -2.62396e-014
lwrist 4.83528e-013 -13.216 6.86087e-014
lhand 13.5318 11.3081 -31.9679
rfemur -16.4791 5.15477 11.2678
rtibia -1.59028e-015 -9.93923e-015 -3.18055e-015
rfoot -178.807 -61.184 176.098
rtoes 4.77083e-015 -6.32384e-014 6.02318e-014
lfemur -15.6666 -14.7675 -11.2556
ltibia 3.48969 1.59028e-014 2.78299e-015
lfoot -10.0509 5.5998 16.7485
ltoes 1.12313e-014 -4.23722e-014 -4.73108e-014
1363
root -10.228 3.82648 -0.757477 92.3034 -68.6329 90.3909
lowerback -27.5183 -0.245625 -8.0391
upperback -7.80693 1.1775 -0.359469
thorax 6.23995 0.252385 4.56526
lowerneck 15.786 -3.86483 2.0879
upperneck 7.53208 -5.15881 -3.42674
head -0.384821 -2.66069 -1.16966
rshoulderjoint -2.1777 7.05863 -28.1945
rhumerus 346.485 -11.8884 -411.413
rradius 22.5789 -6.91771e-014 7.07673e-014
rwrist 5.79206e-013 10.6013 7.68499e-014
rhand 12.7679 -9.27353 29.1544
lshoulderjoint -2.13371 -5.90804 30.8983
lhumerus 345.323 38.8655 407.188
lradius 15.6252 1.87653e-013 -2.82274e-013
lwrist 4.25166e-013 -13.0008 -5.4839e-013
lhand 13.3972 11.135 -32.0597
rfemur -16.4525 4.75736 11.4004
rtibia -7.95139e-014 7.55382e-015 3.97569e-015
rfoot -178.787 -61.3602 176.422
rtoes -1.14102e-013 4.68386e-014 1.97194e-013
lfemur -15.7098 -14.8872 -11.2087
ltibia 3.57137 -4.13472e-014 -1.94809e-014
lfoot -10.0775 5.67174 16.7899
ltoes 2.98376e-013 1.56046e-014 -6.36111e-015
1364
root -10.2277 3.8265 -0.758916 92.0644 -68.6288 90.158
lowerback -27.4802 -0.264733 -8.04531
upperback -7.81793 1.1511 -0.3621
thorax 6.2124 0.241287 4.55678
lowerneck 15.8322 -3.86512 2.09648
upperneck 7.53043 -5.15808 -3.42609
head -0.393054 -2.66017 -1.17017
rshoulderjoint -2.19454 7.10063 -28.2238
rhumerus 346.412 -11.8364 -411.459
rradius 22.5819 2.64384e-014 -2.31385e-013
rwrist 2.0383e-013 10.5642 -4.86118e-013
rhand 12.7057 -9.31727 29.2033
lshoulderjoint -2.14432 -5.93052 30.9199
lhumerus 345.527 38.7613 407.373
lradius 15.6347 -2.48083e-013 -1.15096e-013
lwrist 1.47704e-013 -12.9969 -5.05947e-014
lhand 13.2419 11.0459 -32.0893
rfemur -16.444 4.35569 11.5371
rtibia 2.06736e-014 -8.34896e-015 1.59028e-015
rfoot -178.731 -61.53 176.721
rtoes 2.08724e-014 -2.08649e-013 1.31198e-014
lfemur -15.776 -15.0104 -11.1468
ltibia 3.65332 1.74931e-014 1.27222e-014
lfoot -10.096 5.68015 16.8366
ltoes -3.88624e-014 -7.24508e-014 -4.33351e-014
1365
root -10.2274 3.82655 -0.760419 91.8742 -68.6327 89.9431
lowerback -27.4266 -0.288866 -8.0906
upperback -7.82365 1.1285 -0.368357
thorax 6.18125 0.232215 4.56768
lowerneck 15.8306 -3.8676 2.09951
upperneck 7.56839 -5.16175 -3.42458
head -0.380489 -2.66286 -1.17044
rshoulderjoint -2.18947 7.09174 -28.2065
rhumerus 346.357 -11.8734 -411.443
rradius 22.5898 -5.1684e-015 8.82604e-014
rwrist 4.85298e-014 10.5569 1.59339e-013
rhand 12.7015 -9.27 29.1995
lshoulderjoint -2.15226 -5.94877 30.9317
lhumerus 345.817 38.4882 407.638
lradius 15.6436 4.6118e-013 -1.21259e-014
lwrist -2.24288e-013 -12.8591 -3.14819e-013
lhand 13.0233 10.9976 -32.1594
rfemur -16.4325 3.96021 11.6428
rtibia 5.48646e-014 2.5842e-014 6.36111e-015
rfoot -178.735 -61.7026 177.061
rtoes -2.92213e-014 3.02215e-013 -7.18607e-014
lfemur -15.8493 -15.127 -11.1174
ltibia 3.76941 -4.13472e-014 -1.59028e-014
lfoot -10.1374 5.70507 16.8816
ltoes -3.44891e-014 1.30881e-013 5.84427e-014
1366
root -10.2273 3.82649 -0.761667 91.6539 -68.6182 89.7199
lowerback -27.421 -0.303333 -8.09276
upperback -7.81179 1.11234 -0.366299
thorax 6.19402 0.224333 4.56625
lowerneck 15.8064 -3.85797 2.03842
upperneck 7.59003 -5.1594 -3.39049
head -0.366376 -2.664 -1.15
rshoulderjoint -2.17771 7.03649 -28.2452
rhumerus 346.34 -11.9232 -411.46
rradius 22.607 4.57205e-015 1.98785e-014
rwrist 1.10005e-013 10.5684 0
rhand 12.7083 -9.20761 29.175
lshoulderjoint -2.14521 -5.93098 30.9262
lhumerus 346.133 38.3525 407.889
lradius 15.6444 9.22361e-014 -7.39479e-014
lwrist 4.80958e-014 -12.7321 -1.92383e-013
lhand 12.8993 10.8472 -32.1395
rfemur -16.4346 3.56155 11.7659
rtibia -4.53229e-014 1.59028e-015 0
rfoot -178.695 -61.8701 177.371
rtoes -1.98785e-014 -5.08143e-014 5.05907e-014
lfemur -15.9412 -15.2505 -11.0689
ltibia 3.89839 1.59028e-015 -6.75868e-015
lfoot -10.1913 5.71798 16.935
ltoes 5.60573e-014 1.67787e-014 1.51076e-014
1367
root -10.2268 3.82666 -0.763278 91.4483 -68.6185 89.5413
lowerback -27.3753 -0.318091 -8.09153
upperback -7.81804 1.08869 -0.355634
thorax 6.16774 0.214812 4.5692
lowerneck 15.8271 -3.85855 2.05136
upperneck 7.6024 -5.15818 -3.41282
head -0.36683 -2.66305 -1.15915
rshoulderjoint -2.19048 7.07463 -28.2529
rhumerus 346.286 -11.9235 -411.468
rradius 22.6072 -8.2595e-014 1.92424e-013
rwrist 9.70521e-015 10.5334 4.17324e-013
rhand 12.6992 -9.22801 29.1878
lshoulderjoint -2.13877 -5.91393 30.9236
lhumerus 346.434 38.1858 408.126
lradius 15.6295 4.26194e-013 -1.61612e-013
lwrist -1.40059e-013 -12.4538 -5.81409e-013
lhand 12.8318 10.6258 -32.0948
rfemur -16.432 3.1814 11.9262
rtibia -7.07673e-014 2.98177e-015 4.77083e-015
rfoot -178.72 -62.0469 177.733
rtoes -7.51406e-014 1.05182e-013 1.54654e-013
lfemur -16.0339 -15.3512 -10.9832
ltibia 4.03963 -4.45278e-014 -1.07344e-014
lfoot -10.2341 5.78876 16.9732
ltoes 2.24229e-013 5.22431e-015 -3.57812e-015
1368
root -10.2271 3.82643 -0.764302 91.2973 -68.6033 89.3799
lowerback -27.3886 -0.329087 -8.0922
upperback -7.82419 1.07606 -0.369232
thorax 6.16928 0.208401 4.55063
lowerneck 15.8987 -3.86209 2.07028
upperneck 7.57798 -5.15996 -3.39706
head -0.386402 -2.6633 -1.1558
rshoulderjoint -2.19223 7.08812 -28.2352
rhumerus 346.224 -11.9448 -411.462
rradius 22.6154 -4.87022e-015 -1.33583e-013
rwrist 6.5351e-013 10.5455 -3.59107e-013
rhand 12.6906 -9.23387 29.1849
lshoulderjoint -2.14763 -5.92927 30.9522
lhumerus 346.641 38.1413 408.325
lradius 15.614 -1.94014e-013 -5.64548e-014
lwrist 6.83821e-013 -12.3815 1.38392e-013
lhand 12.7666 10.5474 -31.9951
rfemur -16.4273 2.80421 12.035
rtibia 6.36111e-014 -9.93923e-015 -8.74653e-015
rfoot -178.655 -62.2115 178.02
rtoes 4.69132e-014 -4.192e-013 -5.36719e-015
lfemur -16.0874 -15.4547 -10.954
ltibia 4.11829 2.06736e-014 1.66979e-014
lfoot -10.2774 5.79552 17.0265
ltoes 1.6201e-014 -1.12966e-013 2.34566e-014
